<?xml version="1.0" encoding="UTF-8"?>
<svg xmlns="http://www.w3.org/2000/svg" xmlns:xlink="http://www.w3.org/1999/xlink" width="45px" height="45px" viewBox="0 0 45 45" version="1.1">
<g id="surface1">
<path style=" stroke:none;fill-rule:nonzero;fill:rgb(15.686275%,49.411765%,45.882353%);fill-opacity:1;" d="M 14.0625 0 L 30.9375 0 C 38.703125 0 45 6.296875 45 14.0625 L 45 30.9375 C 45 38.703125 38.703125 45 30.9375 45 L 14.0625 45 C 6.296875 45 0 38.703125 0 30.9375 L 0 14.0625 C 0 6.296875 6.296875 0 14.0625 0 Z M 14.0625 0 "/>
<path style=" stroke:none;fill-rule:nonzero;fill:rgb(10.588235%,43.137255%,39.607843%);fill-opacity:1;" d="M 22.5 0 L 30.9375 0 C 38.703125 0 45 6.296875 45 14.0625 L 45 30.9375 C 45 38.703125 38.703125 45 30.9375 45 L 22.5 45 Z M 22.5 0 "/>
<path style=" stroke:none;fill-rule:nonzero;fill:rgb(100%,100%,100%);fill-opacity:1;" d="M 32.0625 22.21875 C 32.0625 27.65625 27.65625 32.0625 22.21875 32.0625 C 16.78125 32.0625 12.375 27.65625 12.375 22.21875 C 12.375 16.78125 16.78125 12.375 22.21875 12.375 C 27.65625 12.375 32.0625 16.78125 32.0625 22.21875 Z M 32.0625 22.21875 "/>
<path style=" stroke:none;fill-rule:nonzero;fill:rgb(0%,14.901961%,14.901961%);fill-opacity:1;" d="M 30.375 22.21875 C 30.375 26.722656 26.722656 30.375 22.21875 30.375 C 17.714844 30.375 14.0625 26.722656 14.0625 22.21875 C 14.0625 17.714844 17.714844 14.0625 22.21875 14.0625 C 26.722656 14.0625 30.375 17.714844 30.375 22.21875 Z M 30.375 22.21875 "/>
<path style=" stroke:none;fill-rule:nonzero;fill:rgb(5.098039%,34.117647%,34.117647%);fill-opacity:1;" d="M 26.4375 22.21875 C 26.4375 24.546875 24.546875 26.4375 22.21875 26.4375 C 19.890625 26.4375 18 24.546875 18 22.21875 C 18 19.890625 19.890625 18 22.21875 18 C 24.546875 18 26.4375 19.890625 26.4375 22.21875 Z M 26.4375 22.21875 "/>
</g>
</svg>
